<?xml version="1.0" encoding="utf-8"?>
<!-- Generator: Adobe Illustrator 19.0.1, SVG Export Plug-In . SVG Version: 6.00 Build 0)  -->
<svg version="1.1" id="Layer_1" xmlns="http://www.w3.org/2000/svg" xmlns:xlink="http://www.w3.org/1999/xlink" x="0px" y="0px"
	 viewBox="0 0 558 178.9" style="enable-background:new 0 0 558 178.9;" xml:space="preserve">
<style type="text/css">
	.Arched_x0020_Green{fill:url(#SVGID_1_);stroke:#FFFFFF;stroke-width:0.25;stroke-miterlimit:1;}
	.st0{fill:#FFFFFF;}
	.st1{fill:#E8E74F;}
</style>
<linearGradient id="SVGID_1_" gradientUnits="userSpaceOnUse" x1="-1167.0474" y1="175.8048" x2="-1166.3403" y2="175.0977">
	<stop  offset="0" style="stop-color:#20AC4B"/>
	<stop  offset="0.9831" style="stop-color:#19361A"/>
</linearGradient>
<path class="st1" d="M327.5,145.6c8-19.5,1.3-40.6,7.5-61.5c6.2-20.7,22.3-38.2,42.1-46.7c22-9.4,46.2-13.7,70.6-7.6
	c22.6,5.7,48.2,18.1,71.6,8.9c-7.5,13.3-21.9,14.4-35,10.6c15.6,38.3-27.9,85.2-61,97.4c-33.1,12.2-17.8-12.9-23.6-37.3
	c-1.1-4.5-5.9-29.7-12.1-30.1c-8.2-0.6-2.1,26.2-1.5,31.7c1.3,12.4,6.4,34.4-7.6,39.2c-9.8,3.3-29.3-9.3-40.3-8.9
	c-0.3,4,4,29.9-7.4,20.4L327.5,145.6z"/>
<path class="st1" d="M217.3,144.1c-8-19.5-1.3-40.6-7.5-61.5c-6.2-20.7-22.3-38.2-42.1-46.7c-22-9.4-46.2-13.7-70.6-7.6
	C74.5,34,48.9,46.4,25.5,37.2c7.5,13.3,21.9,14.4,35,10.6c-15.6,38.3,27.9,85.2,61,97.4c33.1,12.2,17.8-12.9,23.6-37.3
	c1.1-4.5,5.9-29.7,12.1-30.1c8.2-0.6,2.1,26.1,1.5,31.7c-1.3,12.4-6.4,34.4,7.6,39.2c9.8,3.3,29.3-9.3,40.3-8.9
	c0.3,4-4,29.9,7.4,20.4L217.3,144.1z"/>
</svg>
