<?xml version="1.0" encoding="utf-8"?>
<!-- Generator: Adobe Illustrator 19.0.1, SVG Export Plug-In . SVG Version: 6.00 Build 0)  -->
<svg version="1.1" id="Layer_1" xmlns="http://www.w3.org/2000/svg" xmlns:xlink="http://www.w3.org/1999/xlink" x="0px" y="0px"
	 viewBox="0 0 571.4 235.5" style="enable-background:new 0 0 571.4 235.5;" xml:space="preserve">
<style type="text/css">
	.Arched_x0020_Green{fill:url(#SVGID_1_);stroke:#FFFFFF;stroke-width:0.25;stroke-miterlimit:1;}
	.st0{fill:#FFFFFF;}
	.st1{fill:#E8E74F;}
</style>
<linearGradient id="SVGID_1_" gradientUnits="userSpaceOnUse" x1="-1167.0474" y1="457.26" x2="-1166.3403" y2="456.5529">
	<stop  offset="0" style="stop-color:#20AC4B"/>
	<stop  offset="0.9831" style="stop-color:#19361A"/>
</linearGradient>
<g>
	<path class="st0" d="M110.5,115.8c4.7,5.2,17.2,9.9,24.1,10c-0.9,9.5,0,18.4,0.9,27.9c0.8,8.1-0.5,20.5,4.8,27.1
		c-8.5-9.7-17.2-18.2-21.4-30.4C119,150.5,108.3,118.4,110.5,115.8z"/>
	<path class="st0" d="M67.7,87.1c1.6,6.3-0.1,20.8,6,25.1c5-4.3,5.3-14.4,8.6-20.1c-2-2-13.7-10.9-14.6-4.2"/>
	<path class="st0" d="M89.8,125.6c4.9-0.2,13.5-13.7,13.9-18.5c0.7-7-18-14.2-17.6-7.4c0,0.1,0,0.2,0,0.3
		C86.1,100,84.9,126.7,89.8,125.6z"/>
	<path class="st0" d="M100.7,120.2c-1.7,8.1-3.9,16.2-3,24.7c0.9,9,5.7,10.4,13.5,12.7c3.1-4.3-3.2-15.3-4.7-19.9
		c-1.7-5.5,0.6-14.6-4.9-18L100.7,120.2z"/>
	<path class="st0" d="M80.3,115.1c0.4,0.1,0.7,0,1.3,0.1c0.5,4.9,0.9,9.6,1.6,14.4c0.6,4.3,3.5,11.1-3,9.1c0,0-7.8-5.1-5.3-15
		C74.9,123.8,77.3,114.3,80.3,115.1z"/>
	<path class="st0" d="M138.8,132.2c-0.3,6.2,0.9,12.5,1.5,18.5c0.2,2.7-0.2,7.4,2,9.1c2.8-2,10.6-13.2,10.4-16.7
		c-0.3-5.7-9.8-7.4-13.7-8.9c-0.1-0.1,0.8-0.6,0.7-0.5"/>
	<path class="st0" d="M148.8,180.6c-0.8-6.9-0.7-14.3,1.6-20.9c2.2-6.3,6.5-13,9.5-19c1.1-2.1,4-9.1,6.8-8.4c3.8,0.9,2.2,8.6,2.1,11
		c-0.5,9.3-0.7,17.9-2.6,26.9c-1.3,6-1.3,7.4-7.4,9L148.8,180.6z"/>
	<path class="st0" d="M61.3,94.5c2.1,2.5,3.1,10.2,3.8,13.7c1,5.2,2.5,10.7,2.5,16c-4.4-2.2-14-7.9-15-13.5
		c-0.6-3.4,1.4-6.8,3.2-9.5C55.8,101.1,59.1,92.5,61.3,94.5z"/>
	<path class="st0" d="M54.7,90.1c4.3-3.1,12.3-10,10.3-15.5c-1.3-3.5-4.1-5.9-7.5-4.1c-2.8,1.4-2.9,5.4-3.9,8
		C53.6,78.4,53.8,90.2,54.7,90.1z"/>
	<path class="st0" d="M171.2,152.8c2.5,5.8-1.3,19.7,4.4,24c2.6-2.4,7.5-9.5,6.8-12.6c-0.9-3.9-7.6-9.4-11-11"/>
	<path class="st0" d="M47.3,77.4c1.2,2.5,0.6,9.3,0.4,12.5c-0.2,4.7,0,9.7-1,14.2c-3-2.7-9.5-9.2-9.2-14.2c0.2-3,2.4-5.7,4.2-7.7
		C41.8,82.3,46,75.3,47.3,77.4z"/>
	<path class="st0" d="M46.7,62.1c0,1.4-0.6,3.7-1,5.3c-0.2,1-1.4,4-0.3,4.6c1,0.6,3.6-2.1,4.5-2.8c1.4-0.9,4.1-1.9,4-3.8
		c-0.1-1.9-1.9-3.3-3.5-4C50.4,61.4,46.7,59.2,46.7,62.1z"/>
	<path class="st0" d="M37,65.4c0.7,4.5,1.5,10.3,0.5,14.8c-1.6,6.8-8.1-1.7-9.1-4.9c-1-3,2.2-4.8,4.3-6.3c1-0.8,1.8-1.6,2.6-2.6
		c0.6-0.7,2.3-2,2,0"/>
	<path class="st0" d="M38.3,51.9c-0.3,1.4-1.5,3.4-2.2,4.9c-0.4,0.9-2.3,3.6-1.4,4.4c0.9,0.8,4-1.2,5.1-1.6c1.5-0.5,4.4-0.9,4.8-2.8
		c0.3-1.9-1.1-3.6-2.5-4.7C42.1,52.2,39,49.1,38.3,51.9z"/>
	<path class="st0" d="M26.9,64.3c0.3-1.5,1.7-3.7,2.4-5.2c0.5-1,2.6-3.8,1.5-4.7c-1-0.9-4.6,1.2-5.9,1.6c-1.8,0.5-5.1,0.8-5.5,2.8
		c-0.4,2,1.4,3.9,3,5.1C22.4,63.9,26.1,67.3,26.9,64.3z"/>
	<path class="st0" d="M30.1,41.8c-0.2,1.2-1.2,2.9-1.8,4.1c-0.4,0.8-1.9,3-1.2,3.7c0.7,0.7,3.3-1,4.2-1.4c1.3-0.4,3.7-0.7,4-2.3
		c0.3-1.5-0.9-3-2.1-3.9C33.3,42,30.7,39.5,30.1,41.8z"/>
	<path class="st0" d="M20.1,30.7c-0.4,2.4-3.9,6.4-1.2,8.2c2.2,1.5,2.6-0.6,4.4-1.2c1.4-0.4,3.2,1,4.5,0.3c3.1-1.6-1.9-5-3.3-6
		C24.5,32,20.7,26.9,20.1,30.7z"/>
	<path class="st0" d="M23,46.6c0.2-0.9,1-1.8,0-2.3c-0.6-0.3-2.5,0-3.1,0c-2.1,0.1-3.6,1.5-3.6,3.7c0.1,1.4,0.6,4.4,2.4,4.4
		c1.3,0,2.9-2.3,3.4-3.3L23,46.6z"/>
	<path class="st0" d="M186.9,165.7c-3.1,8.2-12.1,19.1-5.7,27.8c2.5,3.4,7.4,5.4,11.8,4.8c4.9-0.7,6.7-4.9,4.3-8.8
		c-2.6-4.3-4.8-8-5.6-13c-0.4-3-0.3-10.8-5.2-10.2c-0.2,0.8-0.6,1.3-0.5,2.1c-0.2-0.4-0.2-0.8-0.3-1.2"/>
	<path class="st0" d="M202.1,164c1.4,0.8,1.9,3.4,2.1,5c0.2,2.5-0.3,10.1-2.8,11.5c-3.8,2.1-4.1-5.2-4.2-7.2
		c-0.1-1.5-2.4-10.8,0.9-9L202.1,164z"/>
	<path class="st0" d="M207.9,176.4c0.2-0.3-0.7-0.4-0.3-1.1c4.2-1.1,2.8,7.2,3.3,9.7c0.7,3.4,3.4,10.4,6.8,11.6
		c-2,4-6.4,2.5-9.5,1.1c-3.6-1.7-4.9-2.3-4.5-6.9C203.8,190.9,204,180.9,207.9,176.4z"/>
	<path class="st0" d="M247,186.8c0.2-0.2-0.7-0.3-0.3-1c4.2-1,2.8,6.7,3.3,9.1c0.7,3.2,3.4,9.7,6.8,10.9c-2,3.8-6.4,2.3-9.5,1
		c-3.6-1.6-4.9-2.2-4.5-6.4C242.8,200.4,243.1,191,247,186.8z"/>
	<path class="st0" d="M271.4,191.7c0.7,4.5,1.5,10.3,0.5,14.8c-1.6,6.8-8.1-1.7-9.1-4.9c-1-3,2.2-4.8,4.3-6.3c1-0.8,1.8-1.6,2.6-2.6
		c0.6-0.7,2.3-2,2,0"/>
	<path class="st0" d="M252.5,188.2c2.8-1,6.5-2.2,9.6-1.4c4.6,1.1-0.4,8.1-2.3,9.4c-1.9,1.2-3.3-1.9-4.5-3.9c-0.6-1-1.2-1.7-1.9-2.5
		c-0.5-0.5-1.5-2.1-0.2-2"/>
	<path class="st0" d="M214.6,176.9c0.6,1.3,0.8,3.6,1.2,5.2c0.2,1,0.3,4.2,1.5,4.4c1.2,0.2,2.4-3.4,3.1-4.3c0.9-1.3,3-3.3,2.2-5.1
		c-0.8-1.7-3.1-2.3-4.8-2.3C217.8,174.9,213.5,174.3,214.6,176.9z"/>
	<path class="st0" d="M223.5,190.3c-0.9-2,0.3-3.5,2.3-4.2c3.3-1.2,3.9,0.9,5,3.6c0.4,1,0.7,2.7,1.4,3.5c1.2,1.3,2.4,0.6,4.1,1.5
		c1.8,1,3.1,4.7,2.3,6.6c-1.2,2.7-5.2,3.5-7.8,3.2c-3.4-0.4-4.6-2.1-6.1-4.5c-1.4-2.2-3.2-8.2-1.2-10.8"/>
	<path class="st0" d="M232.6,185.1c1.1,0.9,2.4,2.9,3.3,4.2c0.6,0.8,2.1,3.7,3.3,3.3c1.1-0.4,0.7-4.1,0.9-5.2
		c0.2-1.6,1.3-4.3-0.2-5.5c-1.5-1.2-3.7-0.7-5.3,0C234.5,181.8,230.4,183.2,232.6,185.1z"/>
</g>
<g>
	<path class="st0" d="M460.2,106.3c-4.1,5.7-16.1,11.6-23,12.5c1.9,9.4,1.9,18.3,2,27.8c0.1,8.2,2.6,20.4-2,27.5
		c7.4-10.6,15.2-19.9,18.1-32.4C455.4,141.7,462.7,108.7,460.2,106.3z"/>
	<path class="st0" d="M499.8,73.3c-0.9,6.4,2.3,20.7-3.3,25.6c-5.5-3.7-6.7-13.7-10.7-19.1c1.8-2.2,12.5-12.3,14.1-5.7"/>
	<path class="st0" d="M481.8,113.9c-4.9,0.4-14.8-12.2-15.8-16.9c-1.4-6.9,16.4-16,16.8-9.2c0,0.1,0,0.2,0,0.3
		C482.8,88.1,486.8,114.4,481.8,113.9z"/>
	<path class="st0" d="M470.4,109.6c2.6,7.9,5.6,15.7,5.6,24.2c0,9.1-4.6,11-12.2,14.1c-3.5-3.9,1.6-15.5,2.6-20.2
		c1.1-5.6-2.1-14.4,3-18.4L470.4,109.6z"/>
	<path class="st0" d="M490.2,102.4c-0.3,0.1-0.7,0.1-1.3,0.3c0,4.9,0.1,9.7-0.1,14.5c-0.2,4.4-2.3,11.4,4,8.8c0,0,7.2-5.9,3.7-15.5
		C496.4,110.5,493.1,101.3,490.2,102.4z"/>
	<path class="st0" d="M433.8,125.5c0.9,6.1,0.4,12.5,0.4,18.6c0,2.7,1,7.3-1.1,9.2c-3-1.7-11.9-12.1-12.1-15.5
		c-0.3-5.7,9-8.4,12.7-10.3c0.1-0.1-0.8-0.5-0.8-0.4"/>
	<path class="st0" d="M428.9,174.7c0.1-6.9-0.8-14.3-3.8-20.6c-2.9-6-7.8-12.2-11.4-17.9c-1.3-2-5-8.6-7.6-7.7
		c-3.7,1.3-1.3,8.8-1,11.2c1.4,9.2,2.6,17.7,5.4,26.5c1.9,5.8,2,7.3,8.3,8.2L428.9,174.7z"/>
	<path class="st0" d="M507,79.9c-1.8,2.7-2.1,10.4-2.4,14c-0.5,5.3-1.4,10.9-0.8,16.1c4.1-2.7,13.1-9.3,13.5-15
		c0.2-3.4-2.1-6.6-4.1-9.1C513.1,86,508.9,77.7,507,79.9z"/>
	<path class="st0" d="M513,74.9c-4.6-2.6-13.3-8.7-11.9-14.3c0.9-3.6,3.4-6.3,7-4.9c2.9,1.1,3.5,5.1,4.7,7.5
		C512.9,63.1,513.9,74.9,513,74.9z"/>
	<path class="st0" d="M403.7,149.5c-1.9,6,3.3,19.5-1.9,24.3c-2.8-2.1-8.4-8.7-8-11.8c0.5-3.9,6.6-10.1,9.8-12.1"/>
	<path class="st0" d="M519.1,61.5c-0.9,2.6,0.4,9.3,0.9,12.4c0.7,4.6,1,9.6,2.5,14.1c2.7-3,8.5-10.1,7.6-15c-0.5-3-3-5.4-5-7.2
		C525.1,65.7,520.1,59.3,519.1,61.5z"/>
	<path class="st0" d="M518.1,46.2c0.1,1.4,1,3.6,1.5,5.2c0.3,1,1.8,3.8,0.8,4.6c-0.9,0.7-3.8-1.8-4.8-2.3c-1.4-0.7-4.3-1.4-4.4-3.4
		c-0.1-1.9,1.6-3.5,3.1-4.3C514.3,45.9,517.8,43.3,518.1,46.2z"/>
	<path class="st0" d="M528.1,48.5c-0.3,4.5-0.5,10.4,1,14.7c2.3,6.6,7.9-2.5,8.6-5.8c0.7-3.1-2.7-4.5-4.9-5.8
		c-1.1-0.7-2-1.4-2.9-2.3c-0.6-0.6-2.5-1.8-2,0.2"/>
	<path class="st0" d="M525.3,35.2c0.4,1.4,1.8,3.3,2.7,4.7c0.5,0.9,2.6,3.3,1.8,4.3c-0.8,0.9-4.1-0.8-5.2-1.1
		c-1.6-0.4-4.5-0.4-5-2.2c-0.5-1.8,0.7-3.7,2-4.9C521.6,35.9,524.4,32.5,525.3,35.2z"/>
	<path class="st0" d="M538,46.3c-0.5-1.5-2-3.5-3-4.9c-0.6-0.9-3-3.5-2-4.6c0.9-1,4.7,0.8,6,1c1.8,0.3,5.2,0.3,5.8,2.3
		c0.6,1.9-1,4.1-2.4,5.4C542.4,45.5,539.1,49.2,538,46.3z"/>
	<path class="st0" d="M532.5,24.3c0.4,1.1,1.5,2.7,2.2,3.9c0.4,0.7,2.2,2.8,1.5,3.6c-0.6,0.8-3.4-0.7-4.3-0.9
		c-1.3-0.3-3.7-0.3-4.2-1.9c-0.4-1.5,0.6-3.1,1.6-4.1C529.3,24.9,531.7,22,532.5,24.3z"/>
	<path class="st0" d="M541.3,12.2c0.6,2.3,4.5,6,2,8c-2,1.7-2.7-0.4-4.5-0.7c-1.4-0.3-3.1,1.3-4.5,0.7c-3.2-1.3,1.4-5.2,2.7-6.3
		C537,14,540.2,8.4,541.3,12.2z"/>
	<path class="st0" d="M540.1,28.3c-0.3-0.8-1.2-1.7-0.2-2.3c0.6-0.3,2.4-0.3,3.1-0.3c2.1-0.1,3.8,1.1,3.9,3.3
		c0.1,1.3-0.1,4.4-1.9,4.6c-1.3,0.2-3.1-2-3.7-2.9L540.1,28.3z"/>
	<path class="st0" d="M389.4,163.9c3.9,7.8,14,17.7,8.6,27c-2.1,3.7-6.8,6.2-11.2,6c-4.9-0.2-7.1-4.2-5.2-8.3
		c2.1-4.5,4-8.5,4.2-13.5c0.1-3-0.8-10.7,4.1-10.7c0.3,0.7,0.7,1.2,0.8,2.1c0.2-0.4,0.1-0.9,0.1-1.2"/>
	<path class="st0" d="M374.1,163.8c-1.3,1-1.6,3.6-1.5,5.1c0,2.5,1.4,10,4,11.1c4,1.7,3.5-5.6,3.4-7.6c-0.1-1.5,1.3-11-1.9-8.9
		L374.1,163.8z"/>
	<path class="st0" d="M369.6,176.7c-0.2-0.2,0.6-0.4,0.2-1.1c-4.3-0.7-2,7.4-2.3,10c-0.3,3.5-2.3,10.7-5.6,12.3
		c2.5,3.8,6.7,1.8,9.5,0.1c3.4-2,4.6-2.8,3.8-7.3C375.3,190.7,374,180.8,369.6,176.7z"/>
	<path class="st0" d="M331.9,191.2c-0.2-0.2,0.6-0.4,0.2-1c-4.3-0.6-2.1,7-2.4,9.4c-0.4,3.3-2.4,10-5.6,11.6
		c2.4,3.5,6.7,1.7,9.5,0.1c3.4-1.9,4.6-2.7,3.8-6.9C337.4,204.3,336.2,194.9,331.9,191.2z"/>
	<path class="st0" d="M308.1,198.5c-0.3,4.5-0.5,10.4,1,14.7c2.3,6.6,7.9-2.5,8.6-5.8c0.7-3.1-2.7-4.5-4.9-5.8
		c-1.1-0.7-2-1.4-2.9-2.3c-0.6-0.6-2.5-1.8-2,0.2"/>
	<path class="st0" d="M326.5,193.1c-2.9-0.7-6.7-1.5-9.7-0.4c-4.4,1.6,1.2,8.1,3.3,9.1c2,1,3.1-2.3,4.1-4.3c0.5-1,1-1.8,1.7-2.6
		c0.4-0.6,1.3-2.3,0-2"/>
	<path class="st0" d="M363,177.9c-0.5,1.3-0.5,3.7-0.6,5.3c-0.1,1,0.2,4.2-1.1,4.5c-1.1,0.3-2.8-3.1-3.5-4c-1-1.2-3.4-3-2.7-4.8
		c0.6-1.8,2.8-2.6,4.5-2.8C359.6,176.2,363.9,175.2,363,177.9z"/>
	<path class="st0" d="M355.6,192.1c0.7-2-0.7-3.4-2.7-3.9c-3.4-0.8-3.8,1.3-4.6,4.1c-0.3,1-0.4,2.7-1.1,3.6c-1,1.4-2.3,0.8-3.9,2
		c-1.7,1.2-2.6,5-1.6,6.8c1.5,2.6,5.5,3,8.1,2.4c3.4-0.8,4.3-2.6,5.6-5.1c1.1-2.4,2.3-8.5,0.1-10.8"/>
	<path class="st0" d="M346.1,187.9c-1,1-2,3.1-2.9,4.5c-0.5,0.9-1.7,3.9-2.9,3.6c-1.2-0.3-1.2-4-1.4-5.1c-0.4-1.6-1.7-4.2-0.3-5.5
		c1.4-1.3,3.6-1.1,5.3-0.5C343.7,184.9,348,185.8,346.1,187.9z"/>
</g>
</svg>
